<svg xmlns="http://www.w3.org/2000/svg" width="1786" height="798" viewBox="0 0 1786 798">
  <g id="Group_4" data-name="Group 4" transform="translate(-3396 -1687)">
    <g id="Ellipse_1" data-name="Ellipse 1" transform="translate(4675 1879)" fill="#bbe42a" stroke="#333" stroke-width="30">
      <circle cx="253.5" cy="253.5" r="253.5" stroke="none"/>
      <circle cx="253.5" cy="253.5" r="238.5" fill="none"/>
    </g>
    <path id="Icon_awesome-music" data-name="Icon awesome-music" d="M124.657,10.441c0-7.08-5.137-12.069-10.129-9.949L36.619,31.308c-3.238,1.37-5.454,5.381-5.454,9.946V126.5a25.661,25.661,0,0,0-7.791-1.278C10.465,125.224,0,134.567,0,146.094s10.465,20.87,23.374,20.87,23.374-9.343,23.374-20.87V69.888l62.33-24.464v60.208a25.662,25.662,0,0,0-7.791-1.278c-12.909,0-23.374,9.343-23.374,20.87s10.465,20.87,23.374,20.87,23.374-9.343,23.374-20.87l0-114.783Z" transform="translate(4859.883 2048.919)" fill="#333" stroke="#000" stroke-width="1"/>
    <g id="Icon_ionic-ios-volume-high" data-name="Icon ionic-ios-volume-high" transform="translate(5027.783 2032.1)">
      <path id="Path_7" data-name="Path 7" d="M84.519,107.429c0-37.319-15.964-72.247-45-98.49A8.82,8.82,0,0,0,27.818,9a7.112,7.112,0,0,0,.069,10.7C53.76,43.048,67.935,74.2,67.935,107.429h0c0,33.229-14.244,64.38-40.048,87.728a7.112,7.112,0,0,0-.069,10.7,8.461,8.461,0,0,0,5.849,2.266,8.654,8.654,0,0,0,5.78-2.2c29.107-26.18,45.072-61.171,45.072-98.49Z" transform="translate(16.806 -6.752)" fill="#333" stroke="#000" stroke-width="1"/>
      <path id="Path_8" data-name="Path 8" d="M68.688,84.23h0c0-27.376-11.423-53.052-32.2-72.31a8.82,8.82,0,0,0-11.7-.063,7.112,7.112,0,0,0-.069,10.7C42.4,38.981,52.173,60.882,52.173,84.293h0c0,23.411-9.771,45.312-27.456,61.737a7.112,7.112,0,0,0,.069,10.7,8.653,8.653,0,0,0,5.78,2.2,8.461,8.461,0,0,0,5.849-2.266C57.2,137.282,68.688,111.605,68.688,84.23Z" transform="translate(2.242 16.447)" fill="#333" stroke="#000" stroke-width="1"/>
      <path id="Path_9" data-name="Path 9" d="M32.926,14.831a8.82,8.82,0,0,0-11.7-.063,7.112,7.112,0,0,0-.069,10.7,48.228,48.228,0,0,1,15.827,35.62h0A48.433,48.433,0,0,1,21.16,96.706a7.112,7.112,0,0,0,.069,10.7,8.654,8.654,0,0,0,5.78,2.2,8.461,8.461,0,0,0,5.849-2.266c13.281-12.335,20.575-28.7,20.575-46.193h0C53.5,43.591,46.207,27.166,32.926,14.831Z" transform="translate(-18.768 39.591)" fill="#333" stroke="#000" stroke-width="1"/>
    </g>
    <g id="Icon_ionic-ios-volume-high-2" data-name="Icon ionic-ios-volume-high" transform="translate(4826.157 2232.757) rotate(180)">
      <path id="Path_7-2" data-name="Path 7" d="M59.092,100.677c0-37.319-15.964-72.247-45-98.49a8.82,8.82,0,0,0-11.7.063,7.112,7.112,0,0,0,.069,10.7c25.873,23.348,40.048,54.5,40.048,87.728h0c0,33.229-14.244,64.38-40.048,87.728a7.112,7.112,0,0,0-.069,10.7A8.461,8.461,0,0,0,8.24,201.37a8.654,8.654,0,0,0,5.78-2.2c29.107-26.18,45.072-61.171,45.072-98.49Z" transform="translate(42.233 0)" fill="#333" stroke="#000" stroke-width="1"/>
      <path id="Path_8-2" data-name="Path 8" d="M46.362,74.56h0c0-27.376-11.423-53.052-32.2-72.31a8.82,8.82,0,0,0-11.7-.063,7.112,7.112,0,0,0-.069,10.7C20.076,29.311,29.847,51.212,29.847,74.623h0c0,23.411-9.771,45.312-27.456,61.737a7.112,7.112,0,0,0,.069,10.7,8.653,8.653,0,0,0,5.78,2.2A8.461,8.461,0,0,0,14.089,147c20.781-19.383,32.273-45.06,32.273-72.436Z" transform="translate(24.568 26.117)" fill="#333" stroke="#000" stroke-width="1"/>
      <path id="Path_9-2" data-name="Path 9" d="M14.158,2.25a8.82,8.82,0,0,0-11.7-.063,7.112,7.112,0,0,0-.069,10.7,48.228,48.228,0,0,1,15.827,35.62h0A48.433,48.433,0,0,1,2.391,84.126a7.112,7.112,0,0,0,.069,10.7,8.654,8.654,0,0,0,5.78,2.2,8.461,8.461,0,0,0,5.849-2.266c13.281-12.335,20.575-28.7,20.575-46.193h0C34.733,31.01,27.439,14.585,14.158,2.25Z" transform="translate(0 52.171)" fill="#333" stroke="#000" stroke-width="1"/>
    </g>
    <text id="RADI" transform="translate(3396 2334)" fill="#333" font-size="600" font-family="SegoeUI-Semilight, Segoe UI" font-weight="300"><tspan x="0" y="0">RADI</tspan></text>
  </g>
</svg>
